<?xml version="1.0" standalone="no"?><svg xmlns="http://www.w3.org/2000/svg" viewBox="0 0 1440 320"><path fill="#f3f4f5" fill-opacity="1" d="M0,0L30,26.7C60,53,120,107,180,149.3C240,192,300,224,360,229.3C420,235,480,213,540,218.7C600,224,660,256,720,272C780,288,840,288,900,266.7C960,245,1020,203,1080,160C1140,117,1200,75,1260,85.3C1320,96,1380,160,1410,192L1440,224L1440,320L1410,320C1380,320,1320,320,1260,320C1200,320,1140,320,1080,320C1020,320,960,320,900,320C840,320,780,320,720,320C660,320,600,320,540,320C480,320,420,320,360,320C300,320,240,320,180,320C120,320,60,320,30,320L0,320Z"></path></svg>